<svg xmlns="http://www.w3.org/2000/svg" viewBox="0 0 800 400" style="font-family: sans-serif;">
  <defs>
    <linearGradient id="riskGradient" x1="0" y1="0" x2="1" y2="0">
      <stop offset="0%" stop-color="#ef4444" stop-opacity="0.6"/>
      <stop offset="100%" stop-color="#dc2626" stop-opacity="0.8"/>
    </linearGradient>
    <linearGradient id="returnGradient" x1="0" y1="0" x2="1" y2="0">
      <stop offset="0%" stop-color="#10b981" stop-opacity="0.6"/>
      <stop offset="100%" stop-color="#059669" stop-opacity="0.8"/>
    </linearGradient>
  </defs>

  <!-- Title -->
  <text x="400" y="30" font-size="20" font-weight="bold" fill="#1e293b" text-anchor="middle">Risk vs Return Profile</text>

  <!-- Headers -->
  <text x="100" y="70" font-size="14" font-weight="bold" fill="#1e293b" text-anchor="middle">Risk Level</text>
  <text x="300" y="70" font-size="14" font-weight="bold" fill="#1e293b" text-anchor="middle">Capital Risk</text>
  <text x="500" y="70" font-size="14" font-weight="bold" fill="#1e293b" text-anchor="middle">Expected Return</text>
  <text x="700" y="70" font-size="14" font-weight="bold" fill="#1e293b" text-anchor="middle">Description</text>

  <!-- Divider Lines -->
  <line x1="200" y1="80" x2="200" y2="360" stroke="#cbd5e1" stroke-width="1"/>
  <line x1="400" y1="80" x2="400" y2="360" stroke="#cbd5e1" stroke-width="1"/>
  <line x1="600" y1="80" x2="600" y2="360" stroke="#cbd5e1" stroke-width="1"/>

  <!-- R1 -->
  <g transform="translate(0, 100)">
    <text x="100" y="0" font-size="16" font-weight="bold" fill="#1e293b" text-anchor="middle">R1</text>
    <rect x="220" y="-12" width="60" height="24" fill="url(#riskGradient)" rx="3"/>
    <rect x="420" y="-12" width="40" height="24" fill="url(#returnGradient)" rx="3"/>
    <text x="700" y="0" font-size="12" fill="#475569" text-anchor="middle">Very Low Risk, Low Return</text>
  </g>

  <!-- R2 -->
  <g transform="translate(0, 140)">
    <line x1="0" y1="0" x2="800" y2="0" stroke="#cbd5e1" stroke-width="1" stroke-dasharray="2 2"/>
    <text x="100" y="0" font-size="16" font-weight="bold" fill="#1e293b" text-anchor="middle">R2</text>
    <rect x="220" y="-12" width="100" height="24" fill="url(#riskGradient)" rx="3"/>
    <rect x="420" y="-12" width="80" height="24" fill="url(#returnGradient)" rx="3"/>
    <text x="700" y="0" font-size="12" fill="#475569" text-anchor="middle">Low Risk, Modest Return</text>
  </g>

  <!-- R3 -->
  <g transform="translate(0, 180)">
    <line x1="0" y1="0" x2="800" y2="0" stroke="#cbd5e1" stroke-width="1" stroke-dasharray="2 2"/>
    <text x="100" y="0" font-size="16" font-weight="bold" fill="#1e293b" text-anchor="middle">R3</text>
    <rect x="220" y="-12" width="140" height="24" fill="url(#riskGradient)" rx="3"/>
    <rect x="420" y="-12" width="120" height="24" fill="url(#returnGradient)" rx="3"/>
    <text x="700" y="0" font-size="12" fill="#475569" text-anchor="middle">Medium Risk, Balanced Return</text>
  </g>

  <!-- R4 -->
  <g transform="translate(0, 220)">
    <line x1="0" y1="0" x2="800" y2="0" stroke="#cbd5e1" stroke-width="1" stroke-dasharray="2 2"/>
    <text x="100" y="0" font-size="16" font-weight="bold" fill="#1e293b" text-anchor="middle">R4</text>
    <rect x="220" y="-12" width="160" height="24" fill="url(#riskGradient)" rx="3"/>
    <rect x="420" y="-12" width="160" height="24" fill="url(#returnGradient)" rx="3"/>
    <text x="700" y="0" font-size="12" fill="#475569" text-anchor="middle">High Risk, High Return</text>
  </g>

  <!-- R5 -->
  <g transform="translate(0, 260)">
    <line x1="0" y1="0" x2="800" y2="0" stroke="#cbd5e1" stroke-width="1" stroke-dasharray="2 2"/>
    <text x="100" y="0" font-size="16" font-weight="bold" fill="#1e293b" text-anchor="middle">R5</text>
    <rect x="220" y="-12" width="180" height="24" fill="url(#riskGradient)" rx="3"/>
    <rect x="420" y="-12" width="180" height="24" fill="url(#returnGradient)" rx="3"/>
    <text x="700" y="0" font-size="12" fill="#475569" text-anchor="middle">Very High Risk, Max Return</text>
  </g>

  <!-- Bottom line -->
  <line x1="0" y1="280" x2="800" y2="280" stroke="#cbd5e1" stroke-width="1"/>

  <!-- Legend -->
  <g transform="translate(400, 320)">
    <rect x="-100" y="-15" width="30" height="20" fill="url(#riskGradient)" rx="3"/>
    <text x="-60" y="0" font-size="12" fill="#475569">Capital Risk</text>
    <rect x="20" y="-15" width="30" height="20" fill="url(#returnGradient)" rx="3"/>
    <text x="60" y="0" font-size="12" fill="#475569">Expected Return</text>
  </g>
</svg>

